<svg xmlns="http://www.w3.org/2000/svg" xmlns:xlink="http://www.w3.org/1999/xlink" width="685" zoomAndPan="magnify" viewBox="0 0 513.75 112.499997" height="150" preserveAspectRatio="xMidYMid meet" version="1.0"><defs><g/><clipPath id="e37509ee0b"><path d="M 12.210938 16.367188 L 91.359375 16.367188 L 91.359375 95.515625 L 12.210938 95.515625 Z M 12.210938 16.367188 " clip-rule="nonzero"/></clipPath><clipPath id="99a0fad3cd"><path d="M 51.785156 16.367188 C 29.929688 16.367188 12.210938 34.085938 12.210938 55.941406 C 12.210938 77.796875 29.929688 95.515625 51.785156 95.515625 C 73.644531 95.515625 91.359375 77.796875 91.359375 55.941406 C 91.359375 34.085938 73.644531 16.367188 51.785156 16.367188 Z M 51.785156 16.367188 " clip-rule="nonzero"/></clipPath><clipPath id="b5dacce99f"><path d="M 31.175781 37.191406 L 72.398438 37.191406 L 72.398438 74.695312 L 31.175781 74.695312 Z M 31.175781 37.191406 " clip-rule="nonzero"/></clipPath></defs><g clip-path="url(#e37509ee0b)"><g clip-path="url(#99a0fad3cd)"><path fill="#4a04af" d="M 4.296875 8.453125 L 99.277344 8.453125 L 99.277344 103.429688 L 4.296875 103.429688 Z M 4.296875 8.453125 " fill-opacity="1" fill-rule="nonzero"/></g></g><g clip-path="url(#b5dacce99f)"><path fill="#ffffff" d="M 35.433594 37.191406 C 33.136719 37.191406 31.269531 39.0625 31.269531 41.359375 L 31.269531 70.523438 C 31.269531 72.820312 33.136719 74.6875 35.433594 74.6875 L 64.597656 74.6875 C 66.894531 74.6875 68.761719 72.820312 68.761719 70.523438 L 68.761719 50.195312 L 64.597656 54.363281 L 64.601562 70.523438 L 35.433594 70.523438 L 35.433594 41.359375 L 59.925781 41.359375 L 64.089844 37.191406 Z M 69.371094 37.804688 L 47.929688 59.246094 L 41.074219 52.382812 L 38.125 55.332031 L 47.929688 65.136719 L 72.316406 40.75 Z M 69.371094 37.804688 " fill-opacity="1" fill-rule="nonzero"/></g><g fill="#4a04af" fill-opacity="1"><g transform="translate(105.168325, 72.898268)"><g><path d="M 29.65625 -34.640625 L 29.65625 -26.03125 L 20.453125 -26.03125 L 20.453125 0 L 9.59375 0 L 9.59375 -26.03125 L 0.484375 -26.03125 L 0.484375 -34.640625 Z M 29.65625 -34.640625 "/></g></g></g><g fill="#4a04af" fill-opacity="1"><g transform="translate(135.312988, 72.898268)"><g><path d="M 0.984375 -13.796875 C 0.984375 -16.703125 1.476562 -19.222656 2.46875 -21.359375 C 3.46875 -23.492188 4.832031 -25.125 6.5625 -26.25 C 8.289062 -27.375 10.226562 -27.9375 12.375 -27.9375 C 14.175781 -27.9375 15.726562 -27.566406 17.03125 -26.828125 C 18.332031 -26.097656 19.328125 -25.097656 20.015625 -23.828125 L 20.015625 -27.59375 L 30.828125 -27.59375 L 30.828125 0 L 20.015625 0 L 20.015625 -3.765625 C 19.328125 -2.492188 18.332031 -1.488281 17.03125 -0.75 C 15.726562 -0.0195312 14.175781 0.34375 12.375 0.34375 C 10.226562 0.34375 8.289062 -0.21875 6.5625 -1.34375 C 4.832031 -2.46875 3.46875 -4.097656 2.46875 -6.234375 C 1.476562 -8.367188 0.984375 -10.890625 0.984375 -13.796875 Z M 20.015625 -13.796875 C 20.015625 -15.265625 19.640625 -16.40625 18.890625 -17.21875 C 18.140625 -18.039062 17.175781 -18.453125 16 -18.453125 C 14.820312 -18.453125 13.859375 -18.039062 13.109375 -17.21875 C 12.359375 -16.40625 11.984375 -15.265625 11.984375 -13.796875 C 11.984375 -12.328125 12.359375 -11.1875 13.109375 -10.375 C 13.859375 -9.5625 14.820312 -9.15625 16 -9.15625 C 17.175781 -9.15625 18.140625 -9.5625 18.890625 -10.375 C 19.640625 -11.1875 20.015625 -12.328125 20.015625 -13.796875 Z M 20.015625 -13.796875 "/></g></g></g><g fill="#4a04af" fill-opacity="1"><g transform="translate(168.589564, 72.898268)"><g><path d="M 14.734375 0.34375 C 12.117188 0.34375 9.804688 -0.078125 7.796875 -0.921875 C 5.796875 -1.773438 4.207031 -2.953125 3.03125 -4.453125 C 1.851562 -5.953125 1.1875 -7.648438 1.03125 -9.546875 L 11.453125 -9.546875 C 11.578125 -8.722656 11.925781 -8.113281 12.5 -7.71875 C 13.070312 -7.332031 13.800781 -7.140625 14.6875 -7.140625 C 15.238281 -7.140625 15.675781 -7.257812 16 -7.5 C 16.320312 -7.75 16.484375 -8.054688 16.484375 -8.421875 C 16.484375 -9.035156 16.140625 -9.472656 15.453125 -9.734375 C 14.773438 -9.992188 13.617188 -10.289062 11.984375 -10.625 C 9.992188 -11.007812 8.351562 -11.429688 7.0625 -11.890625 C 5.78125 -12.347656 4.65625 -13.128906 3.6875 -14.234375 C 2.726562 -15.347656 2.25 -16.882812 2.25 -18.84375 C 2.25 -20.539062 2.695312 -22.082031 3.59375 -23.46875 C 4.488281 -24.851562 5.816406 -25.941406 7.578125 -26.734375 C 9.347656 -27.535156 11.488281 -27.9375 14 -27.9375 C 17.71875 -27.9375 20.628906 -27.023438 22.734375 -25.203125 C 24.835938 -23.378906 26.101562 -21 26.53125 -18.0625 L 16.890625 -18.0625 C 16.722656 -18.8125 16.378906 -19.390625 15.859375 -19.796875 C 15.335938 -20.203125 14.632812 -20.40625 13.75 -20.40625 C 13.195312 -20.40625 12.769531 -20.296875 12.46875 -20.078125 C 12.175781 -19.867188 12.03125 -19.554688 12.03125 -19.140625 C 12.03125 -18.578125 12.375 -18.15625 13.0625 -17.875 C 13.75 -17.601562 14.84375 -17.320312 16.34375 -17.03125 C 18.332031 -16.632812 20.007812 -16.191406 21.375 -15.703125 C 22.75 -15.210938 23.941406 -14.375 24.953125 -13.1875 C 25.960938 -12 26.46875 -10.359375 26.46875 -8.265625 C 26.46875 -6.640625 25.992188 -5.171875 25.046875 -3.859375 C 24.109375 -2.554688 22.75 -1.53125 20.96875 -0.78125 C 19.1875 -0.03125 17.109375 0.34375 14.734375 0.34375 Z M 14.734375 0.34375 "/></g></g></g><g fill="#4a04af" fill-opacity="1"><g transform="translate(196.92359, 72.898268)"><g><path d="M 20.109375 0 L 13.3125 -11.015625 L 13.3125 0 L 2.453125 0 L 2.453125 -36.21875 L 13.3125 -36.21875 L 13.3125 -17.28125 L 20.21875 -27.59375 L 32.84375 -27.59375 L 22.515625 -13.703125 L 33.078125 0 Z M 20.109375 0 "/></g></g></g><g fill="#4a04af" fill-opacity="1"><g transform="translate(230.004424, 72.898268)"><g><path d="M 14.734375 0.34375 C 12.117188 0.34375 9.804688 -0.078125 7.796875 -0.921875 C 5.796875 -1.773438 4.207031 -2.953125 3.03125 -4.453125 C 1.851562 -5.953125 1.1875 -7.648438 1.03125 -9.546875 L 11.453125 -9.546875 C 11.578125 -8.722656 11.925781 -8.113281 12.5 -7.71875 C 13.070312 -7.332031 13.800781 -7.140625 14.6875 -7.140625 C 15.238281 -7.140625 15.675781 -7.257812 16 -7.5 C 16.320312 -7.75 16.484375 -8.054688 16.484375 -8.421875 C 16.484375 -9.035156 16.140625 -9.472656 15.453125 -9.734375 C 14.773438 -9.992188 13.617188 -10.289062 11.984375 -10.625 C 9.992188 -11.007812 8.351562 -11.429688 7.0625 -11.890625 C 5.78125 -12.347656 4.65625 -13.128906 3.6875 -14.234375 C 2.726562 -15.347656 2.25 -16.882812 2.25 -18.84375 C 2.25 -20.539062 2.695312 -22.082031 3.59375 -23.46875 C 4.488281 -24.851562 5.816406 -25.941406 7.578125 -26.734375 C 9.347656 -27.535156 11.488281 -27.9375 14 -27.9375 C 17.71875 -27.9375 20.628906 -27.023438 22.734375 -25.203125 C 24.835938 -23.378906 26.101562 -21 26.53125 -18.0625 L 16.890625 -18.0625 C 16.722656 -18.8125 16.378906 -19.390625 15.859375 -19.796875 C 15.335938 -20.203125 14.632812 -20.40625 13.75 -20.40625 C 13.195312 -20.40625 12.769531 -20.296875 12.46875 -20.078125 C 12.175781 -19.867188 12.03125 -19.554688 12.03125 -19.140625 C 12.03125 -18.578125 12.375 -18.15625 13.0625 -17.875 C 13.75 -17.601562 14.84375 -17.320312 16.34375 -17.03125 C 18.332031 -16.632812 20.007812 -16.191406 21.375 -15.703125 C 22.75 -15.210938 23.941406 -14.375 24.953125 -13.1875 C 25.960938 -12 26.46875 -10.359375 26.46875 -8.265625 C 26.46875 -6.640625 25.992188 -5.171875 25.046875 -3.859375 C 24.109375 -2.554688 22.75 -1.53125 20.96875 -0.78125 C 19.1875 -0.03125 17.109375 0.34375 14.734375 0.34375 Z M 14.734375 0.34375 "/></g></g></g><g fill="#4a04af" fill-opacity="1"><g transform="translate(258.33845, 72.898268)"><g/></g></g><g fill="#4a04af" fill-opacity="1"><g transform="translate(266.657587, 72.898268)"><g><path d="M 16.890625 -34.640625 C 20.503906 -34.640625 23.671875 -33.90625 26.390625 -32.4375 C 29.117188 -30.976562 31.21875 -28.941406 32.6875 -26.328125 C 34.15625 -23.710938 34.890625 -20.742188 34.890625 -17.421875 C 34.890625 -14.128906 34.15625 -11.160156 32.6875 -8.515625 C 31.21875 -5.867188 29.117188 -3.785156 26.390625 -2.265625 C 23.671875 -0.753906 20.503906 0 16.890625 0 L 2.453125 0 L 2.453125 -34.640625 Z M 15.90625 -9.6875 C 18.351562 -9.6875 20.289062 -10.351562 21.71875 -11.6875 C 23.15625 -13.03125 23.875 -14.941406 23.875 -17.421875 C 23.875 -19.898438 23.15625 -21.804688 21.71875 -23.140625 C 20.289062 -24.484375 18.351562 -25.15625 15.90625 -25.15625 L 13.3125 -25.15625 L 13.3125 -9.6875 Z M 15.90625 -9.6875 "/></g></g></g><g fill="#4a04af" fill-opacity="1"><g transform="translate(303.017143, 72.898268)"><g><path d="M 7.921875 -29.796875 C 6.035156 -29.796875 4.519531 -30.300781 3.375 -31.3125 C 2.226562 -32.332031 1.65625 -33.609375 1.65625 -35.140625 C 1.65625 -36.703125 2.226562 -37.992188 3.375 -39.015625 C 4.519531 -40.046875 6.035156 -40.5625 7.921875 -40.5625 C 9.785156 -40.5625 11.285156 -40.046875 12.421875 -39.015625 C 13.566406 -37.992188 14.140625 -36.703125 14.140625 -35.140625 C 14.140625 -33.609375 13.566406 -32.332031 12.421875 -31.3125 C 11.285156 -30.300781 9.785156 -29.796875 7.921875 -29.796875 Z M 13.3125 -27.59375 L 13.3125 0 L 2.453125 0 L 2.453125 -27.59375 Z M 13.3125 -27.59375 "/></g></g></g><g fill="#4a04af" fill-opacity="1"><g transform="translate(318.774586, 72.898268)"><g><path d="M 12.375 -27.9375 C 14.175781 -27.9375 15.726562 -27.566406 17.03125 -26.828125 C 18.332031 -26.097656 19.328125 -25.097656 20.015625 -23.828125 L 20.015625 -27.59375 L 30.828125 -27.59375 L 30.828125 -0.484375 C 30.828125 2.085938 30.351562 4.429688 29.40625 6.546875 C 28.46875 8.671875 26.941406 10.367188 24.828125 11.640625 C 22.722656 12.921875 20.023438 13.5625 16.734375 13.5625 C 12.296875 13.5625 8.78125 12.523438 6.1875 10.453125 C 3.59375 8.378906 2.117188 5.5625 1.765625 2 L 12.4375 2 C 12.726562 3.4375 13.898438 4.15625 15.953125 4.15625 C 17.222656 4.15625 18.21875 3.828125 18.9375 3.171875 C 19.65625 2.523438 20.015625 1.304688 20.015625 -0.484375 L 20.015625 -3.765625 C 19.328125 -2.492188 18.332031 -1.488281 17.03125 -0.75 C 15.726562 -0.0195312 14.175781 0.34375 12.375 0.34375 C 10.226562 0.34375 8.289062 -0.21875 6.5625 -1.34375 C 4.832031 -2.46875 3.46875 -4.097656 2.46875 -6.234375 C 1.476562 -8.367188 0.984375 -10.890625 0.984375 -13.796875 C 0.984375 -16.703125 1.476562 -19.222656 2.46875 -21.359375 C 3.46875 -23.492188 4.832031 -25.125 6.5625 -26.25 C 8.289062 -27.375 10.226562 -27.9375 12.375 -27.9375 Z M 20.015625 -13.796875 C 20.015625 -15.265625 19.640625 -16.40625 18.890625 -17.21875 C 18.140625 -18.039062 17.175781 -18.453125 16 -18.453125 C 14.820312 -18.453125 13.859375 -18.039062 13.109375 -17.21875 C 12.359375 -16.40625 11.984375 -15.265625 11.984375 -13.796875 C 11.984375 -12.328125 12.359375 -11.1875 13.109375 -10.375 C 13.859375 -9.5625 14.820312 -9.15625 16 -9.15625 C 17.175781 -9.15625 18.140625 -9.5625 18.890625 -10.375 C 19.640625 -11.1875 20.015625 -12.328125 20.015625 -13.796875 Z M 20.015625 -13.796875 "/></g></g></g><g fill="#4a04af" fill-opacity="1"><g transform="translate(352.051162, 72.898268)"><g><path d="M 7.921875 -29.796875 C 6.035156 -29.796875 4.519531 -30.300781 3.375 -31.3125 C 2.226562 -32.332031 1.65625 -33.609375 1.65625 -35.140625 C 1.65625 -36.703125 2.226562 -37.992188 3.375 -39.015625 C 4.519531 -40.046875 6.035156 -40.5625 7.921875 -40.5625 C 9.785156 -40.5625 11.285156 -40.046875 12.421875 -39.015625 C 13.566406 -37.992188 14.140625 -36.703125 14.140625 -35.140625 C 14.140625 -33.609375 13.566406 -32.332031 12.421875 -31.3125 C 11.285156 -30.300781 9.785156 -29.796875 7.921875 -29.796875 Z M 13.3125 -27.59375 L 13.3125 0 L 2.453125 0 L 2.453125 -27.59375 Z M 13.3125 -27.59375 "/></g></g></g><g fill="#4a04af" fill-opacity="1"><g transform="translate(367.808604, 72.898268)"><g><path d="M 12.375 -27.9375 C 14.175781 -27.9375 15.726562 -27.566406 17.03125 -26.828125 C 18.332031 -26.097656 19.328125 -25.097656 20.015625 -23.828125 L 20.015625 -27.59375 L 30.828125 -27.59375 L 30.828125 -0.484375 C 30.828125 2.085938 30.351562 4.429688 29.40625 6.546875 C 28.46875 8.671875 26.941406 10.367188 24.828125 11.640625 C 22.722656 12.921875 20.023438 13.5625 16.734375 13.5625 C 12.296875 13.5625 8.78125 12.523438 6.1875 10.453125 C 3.59375 8.378906 2.117188 5.5625 1.765625 2 L 12.4375 2 C 12.726562 3.4375 13.898438 4.15625 15.953125 4.15625 C 17.222656 4.15625 18.21875 3.828125 18.9375 3.171875 C 19.65625 2.523438 20.015625 1.304688 20.015625 -0.484375 L 20.015625 -3.765625 C 19.328125 -2.492188 18.332031 -1.488281 17.03125 -0.75 C 15.726562 -0.0195312 14.175781 0.34375 12.375 0.34375 C 10.226562 0.34375 8.289062 -0.21875 6.5625 -1.34375 C 4.832031 -2.46875 3.46875 -4.097656 2.46875 -6.234375 C 1.476562 -8.367188 0.984375 -10.890625 0.984375 -13.796875 C 0.984375 -16.703125 1.476562 -19.222656 2.46875 -21.359375 C 3.46875 -23.492188 4.832031 -25.125 6.5625 -26.25 C 8.289062 -27.375 10.226562 -27.9375 12.375 -27.9375 Z M 20.015625 -13.796875 C 20.015625 -15.265625 19.640625 -16.40625 18.890625 -17.21875 C 18.140625 -18.039062 17.175781 -18.453125 16 -18.453125 C 14.820312 -18.453125 13.859375 -18.039062 13.109375 -17.21875 C 12.359375 -16.40625 11.984375 -15.265625 11.984375 -13.796875 C 11.984375 -12.328125 12.359375 -11.1875 13.109375 -10.375 C 13.859375 -9.5625 14.820312 -9.15625 16 -9.15625 C 17.175781 -9.15625 18.140625 -9.5625 18.890625 -10.375 C 19.640625 -11.1875 20.015625 -12.328125 20.015625 -13.796875 Z M 20.015625 -13.796875 "/></g></g></g><g fill="#4a04af" fill-opacity="1"><g transform="translate(401.08518, 72.898268)"><g><path d="M 13.3125 -22.515625 C 14.414062 -24.109375 15.765625 -25.382812 17.359375 -26.34375 C 18.960938 -27.3125 20.628906 -27.796875 22.359375 -27.796875 L 22.359375 -16.203125 L 19.28125 -16.203125 C 17.226562 -16.203125 15.71875 -15.84375 14.75 -15.125 C 13.789062 -14.40625 13.3125 -13.128906 13.3125 -11.296875 L 13.3125 0 L 2.453125 0 L 2.453125 -27.59375 L 13.3125 -27.59375 Z M 13.3125 -22.515625 "/></g></g></g><g fill="#4a04af" fill-opacity="1"><g transform="translate(423.938362, 72.898268)"><g><path d="M 15.5625 0.34375 C 12.789062 0.34375 10.296875 -0.222656 8.078125 -1.359375 C 5.859375 -2.503906 4.117188 -4.144531 2.859375 -6.28125 C 1.609375 -8.425781 0.984375 -10.929688 0.984375 -13.796875 C 0.984375 -16.671875 1.609375 -19.175781 2.859375 -21.3125 C 4.117188 -23.445312 5.859375 -25.082031 8.078125 -26.21875 C 10.296875 -27.363281 12.789062 -27.9375 15.5625 -27.9375 C 18.332031 -27.9375 20.828125 -27.363281 23.046875 -26.21875 C 25.265625 -25.082031 27 -23.445312 28.25 -21.3125 C 29.507812 -19.175781 30.140625 -16.671875 30.140625 -13.796875 C 30.140625 -10.929688 29.507812 -8.425781 28.25 -6.28125 C 27 -4.144531 25.265625 -2.503906 23.046875 -1.359375 C 20.828125 -0.222656 18.332031 0.34375 15.5625 0.34375 Z M 15.5625 -9.046875 C 16.570312 -9.046875 17.421875 -9.445312 18.109375 -10.25 C 18.796875 -11.050781 19.140625 -12.234375 19.140625 -13.796875 C 19.140625 -15.367188 18.796875 -16.550781 18.109375 -17.34375 C 17.421875 -18.144531 16.570312 -18.546875 15.5625 -18.546875 C 14.550781 -18.546875 13.703125 -18.144531 13.015625 -17.34375 C 12.328125 -16.550781 11.984375 -15.367188 11.984375 -13.796875 C 11.984375 -12.234375 12.316406 -11.050781 12.984375 -10.25 C 13.660156 -9.445312 14.519531 -9.046875 15.5625 -9.046875 Z M 15.5625 -9.046875 "/></g></g></g><g fill="#4a04af" fill-opacity="1"><g transform="translate(455.061763, 72.898268)"><g><path d="M 44.34375 -27.59375 L 37.78125 0 L 25.546875 0 L 22.21875 -15.5625 L 18.6875 0 L 6.453125 0 L -0.046875 -27.59375 L 10.71875 -27.59375 L 13.015625 -10.8125 L 16.59375 -27.59375 L 28.1875 -27.59375 L 31.953125 -10.625 L 34.3125 -27.59375 Z M 44.34375 -27.59375 "/></g></g></g></svg>