<svg xmlns="http://www.w3.org/2000/svg" xmlns:xlink="http://www.w3.org/1999/xlink" width="512" zoomAndPan="magnify" viewBox="0 0 384 383.999986" height="512" preserveAspectRatio="xMidYMid meet" version="1.0"><defs><clipPath id="85f34e881e"><path d="M 192 0 C 85.960938 0 0 85.960938 0 192 C 0 298.039062 85.960938 384 192 384 C 298.039062 384 384 298.039062 384 192 C 384 85.960938 298.039062 0 192 0 Z M 192 0 " clip-rule="nonzero"/></clipPath><clipPath id="c9b0916b5a"><path d="M 92 101.042969 L 292 101.042969 L 292 283 L 92 283 Z M 92 101.042969 " clip-rule="nonzero"/></clipPath></defs><g clip-path="url(#85f34e881e)"><rect x="-38.4" width="460.8" fill="#4a04af" y="-38.399999" height="460.799983" fill-opacity="1"/></g><g clip-path="url(#c9b0916b5a)"><path fill="#ffffff" d="M 112.660156 101.042969 C 101.515625 101.042969 92.449219 110.109375 92.449219 121.257812 L 92.449219 262.742188 C 92.449219 273.890625 101.515625 282.953125 112.660156 282.953125 L 254.148438 282.953125 C 265.292969 282.953125 274.359375 273.890625 274.359375 262.742188 L 274.359375 164.128906 L 254.148438 184.339844 L 254.167969 262.742188 L 112.660156 262.742188 L 112.660156 121.257812 L 231.488281 121.257812 L 251.699219 101.042969 Z M 277.320312 104.003906 L 173.296875 208.027344 L 140.019531 174.746094 L 125.726562 189.039062 L 173.296875 236.609375 L 291.609375 118.296875 Z M 277.320312 104.003906 " fill-opacity="1" fill-rule="nonzero"/></g></svg>